<svg xmlns="http://www.w3.org/2000/svg" xmlns:xlink="http://www.w3.org/1999/xlink" width="1080" zoomAndPan="magnify" viewBox="0 0 810 809.999993" height="1080" preserveAspectRatio="xMidYMid meet" version="1.0"><defs><filter x="0%" y="0%" width="100%" height="100%" id="ddf3cf172f"><feColorMatrix values="0 0 0 0 1 0 0 0 0 1 0 0 0 0 1 0 0 0 1 0" color-interpolation-filters="sRGB"/></filter><clipPath id="49de04313a"><path d="M 0.71875 0.160156 L 617.519531 0.160156 L 617.519531 599.199219 L 0.71875 599.199219 Z M 0.71875 0.160156 " clip-rule="nonzero"/></clipPath><mask id="f2cc0f7fb2"><g filter="url(#ddf3cf172f)"><rect x="-274.2" width="1166.4" fill="#000000" y="-228.199998" height="1166.39999" fill-opacity="0.23"/></g></mask><clipPath id="718a480692"><path d="M 0.917969 0.5 L 617.519531 0.5 L 617.519531 599.199219 L 0.917969 599.199219 Z M 0.917969 0.5 " clip-rule="nonzero"/></clipPath><mask id="17d937a9e1"><g filter="url(#ddf3cf172f)"><rect x="-390.84" width="1399.68" fill="#000000" y="-344.839997" height="1399.679988" fill-opacity="0.996"/></g></mask><clipPath id="16dbb237e0"><path d="M 1 0.5 L 617.519531 0.5 L 617.519531 599 L 1 599 Z M 1 0.5 " clip-rule="nonzero"/></clipPath><clipPath id="2f358cb3ff"><rect x="0" width="618" y="0" height="600"/></clipPath><clipPath id="3c89909eb7"><rect x="0" width="618" y="0" height="600"/></clipPath><mask id="ef10b99717"><g filter="url(#ddf3cf172f)"><rect x="-274.2" width="1166.4" fill="#000000" y="-228.199998" height="1166.39999" fill-opacity="0.98"/></g></mask><clipPath id="8462e57e1b"><path d="M 0.628906 0.730469 L 583.71875 0.730469 L 583.71875 565.148438 L 0.628906 565.148438 Z M 0.628906 0.730469 " clip-rule="nonzero"/></clipPath><mask id="53e456693b"><g filter="url(#ddf3cf172f)"><rect x="-407.84" width="1399.68" fill="#000000" y="-360.839997" height="1399.679988" fill-opacity="0.996"/></g></mask><clipPath id="94b909c99b"><path d="M 0.628906 0.730469 L 583.71875 0.730469 L 583.71875 565.148438 L 0.628906 565.148438 Z M 0.628906 0.730469 " clip-rule="nonzero"/></clipPath><clipPath id="2906d5c621"><rect x="0" width="584" y="0" height="566"/></clipPath><clipPath id="c733940523"><rect x="0" width="584" y="0" height="568"/></clipPath><clipPath id="d75f049b84"><rect x="0" width="618" y="0" height="600"/></clipPath></defs><g transform="matrix(1, 0, 0, 1, 96, 50)"><g clip-path="url(#d75f049b84)"><g clip-path="url(#49de04313a)"><g mask="url(#f2cc0f7fb2)"><g transform="matrix(1, 0, 0, 1, 0, 0.000000000000035527)"><g clip-path="url(#3c89909eb7)"><g clip-path="url(#718a480692)"><g mask="url(#17d937a9e1)"><g transform="matrix(1, 0, 0, 1, 0, 0.000000000000035527)"><g clip-path="url(#2f358cb3ff)"><g clip-path="url(#16dbb237e0)"><path fill="#545454" d="M 257.394531 0.539062 C 283.898438 0.800781 310.394531 0.800781 336.882812 0.539062 C 373.257812 0.511719 409.53125 2.371094 445.707031 6.109375 C 473.523438 8.78125 500.703125 14.449219 527.246094 23.121094 C 541.390625 28.042969 554.296875 35.082031 565.964844 44.242188 C 579.222656 56.957031 588.710938 72.109375 594.417969 89.707031 C 604.507812 120.8125 610.765625 152.6875 613.191406 185.328125 C 614.996094 204.84375 616.167969 224.398438 616.710938 243.992188 C 617.101562 281.144531 617.101562 318.296875 616.710938 355.453125 C 615.957031 391.285156 612.632812 426.875 606.738281 462.21875 C 602.953125 486.679688 595.519531 509.949219 584.445312 532.027344 C 576.332031 546.402344 565.085938 557.648438 550.710938 565.757812 C 533.453125 574.769531 515.265625 581.222656 496.15625 585.117188 C 457.820312 592.769531 419.101562 597.070312 380.003906 598.023438 C 365.632812 598.546875 351.261719 598.839844 336.882812 598.90625 C 310.394531 598.742188 283.898438 598.640625 257.394531 598.609375 C 216.648438 598.105469 176.171875 594.585938 135.960938 588.050781 C 111.949219 584.023438 89.070312 576.59375 67.324219 565.757812 C 48.046875 554.492188 34.453125 538.359375 26.554688 517.363281 C 19.644531 499.5 14.558594 481.117188 11.300781 462.21875 C 5.40625 426.875 2.082031 391.285156 1.328125 355.453125 C 0.9375 318.296875 0.9375 281.144531 1.328125 243.992188 C 2.03125 204.128906 6.136719 164.628906 13.648438 125.492188 C 17.9375 102.050781 26.152344 80.152344 38.289062 59.789062 C 45.953125 48.796875 55.632812 40.09375 67.324219 33.683594 C 84.585938 24.667969 102.769531 18.214844 121.882812 14.324219 C 149.375 8.589844 177.144531 4.875 205.183594 3.175781 C 222.671875 2.097656 240.074219 1.21875 257.394531 0.539062 Z M 257.394531 0.539062 " fill-opacity="1" fill-rule="evenodd"/></g></g></g></g></g></g></g></g></g><g mask="url(#ef10b99717)"><g transform="matrix(1, 0, 0, 1, 17, 16)"><g clip-path="url(#c733940523)"><g clip-path="url(#8462e57e1b)"><g mask="url(#53e456693b)"><g transform="matrix(1, 0, 0, 1, 0, 0.000000000000028422)"><g clip-path="url(#2906d5c621)"><g clip-path="url(#94b909c99b)"><path fill="#e7c69e" d="M 243.191406 0.761719 C 268.257812 1.011719 293.316406 1.011719 318.367188 0.761719 C 352.765625 0.738281 387.070312 2.496094 421.285156 6.03125 C 447.59375 8.558594 473.296875 13.921875 498.402344 22.121094 C 511.777344 26.773438 523.984375 33.433594 535.019531 42.09375 C 547.558594 54.121094 556.53125 68.453125 561.925781 85.09375 C 571.46875 114.511719 577.390625 144.65625 579.679688 175.527344 C 581.390625 193.984375 582.5 212.476562 583.011719 231.007812 C 583.382812 266.144531 583.382812 301.28125 583.011719 336.421875 C 582.300781 370.308594 579.15625 403.96875 573.578125 437.394531 C 570 460.527344 562.96875 482.535156 552.496094 503.417969 C 544.824219 517.011719 534.1875 527.644531 520.59375 535.320312 C 504.273438 543.839844 487.070312 549.941406 468.996094 553.628906 C 432.742188 560.863281 396.125 564.929688 359.144531 565.832031 C 345.558594 566.328125 331.964844 566.605469 318.367188 566.664062 C 293.316406 566.507812 268.257812 566.414062 243.191406 566.386719 C 204.65625 565.910156 166.375 562.582031 128.347656 556.402344 C 105.636719 552.589844 84 545.566406 63.433594 535.320312 C 45.199219 524.660156 32.347656 509.402344 24.875 489.546875 C 18.339844 472.652344 13.53125 455.269531 10.449219 437.394531 C 4.871094 403.96875 1.726562 370.308594 1.019531 336.421875 C 0.648438 301.28125 0.648438 266.144531 1.019531 231.007812 C 1.679688 193.308594 5.566406 155.949219 12.667969 118.9375 C 16.726562 96.769531 24.492188 76.054688 35.972656 56.796875 C 43.21875 46.402344 52.375 38.171875 63.433594 32.109375 C 79.757812 23.585938 96.957031 17.480469 115.03125 13.800781 C 141.03125 8.375 167.292969 4.863281 193.8125 3.257812 C 210.351562 2.238281 226.8125 1.40625 243.191406 0.761719 Z M 243.191406 0.761719 " fill-opacity="1" fill-rule="evenodd"/></g></g></g></g></g></g></g></g></g></g></svg>